<?xml version="1.0" encoding="UTF-8" standalone="no"?>
<!-- Created with Inkscape (http://www.inkscape.org/) -->
<svg xmlns:dc="http://purl.org/dc/elements/1.1/" xmlns:cc="http://creativecommons.org/ns#" xmlns:rdf="http://www.w3.org/1999/02/22-rdf-syntax-ns#" xmlns:svg="http://www.w3.org/2000/svg" xmlns="http://www.w3.org/2000/svg" xmlns:xlink="http://www.w3.org/1999/xlink" xmlns:sodipodi="http://sodipodi.sourceforge.net/DTD/sodipodi-0.dtd" xmlns:inkscape="http://www.inkscape.org/namespaces/inkscape" width="48" height="48" viewBox="0 0 48.000001 48.000001" id="svg4230" version="1.1" inkscape:version="0.91 r13725" sodipodi:docname="fdroid-logo.svg">
  <defs id="defs4232">
    <linearGradient inkscape:collect="always" id="linearGradient5212">
      <stop style="stop-color:#ffffff;stop-opacity:0.09803922" offset="0" id="stop5214"/>
      <stop style="stop-color:#ffffff;stop-opacity:0" offset="1" id="stop5216"/>
    </linearGradient>
    <radialGradient inkscape:collect="always" xlink:href="#linearGradient5212" id="radialGradient5220" cx="-98.23381" cy="3.4695871" fx="-98.23381" fy="3.4695871" r="22.671185" gradientTransform="matrix(0,1.9747624,-2.117225,3.9784049e-8,8.677247,1199.588)" gradientUnits="userSpaceOnUse"/>
    <filter inkscape:collect="always" style="color-interpolation-filters:sRGB" id="filter4175" x="-0.023846937" width="1.0476939" y="-0.02415504" height="1.0483101">
      <feGaussianBlur inkscape:collect="always" stdDeviation="0.45053152" id="feGaussianBlur4177"/>
    </filter>
  </defs>
  <sodipodi:namedview id="base" pagecolor="#ffffff" bordercolor="#666666" borderopacity="1.0" inkscape:pageopacity="0.0" inkscape:pageshadow="2" inkscape:zoom="11.313708" inkscape:cx="6.4184057" inkscape:cy="25.737489" inkscape:document-units="px" inkscape:current-layer="layer1" showgrid="true" units="px" inkscape:window-width="1920" inkscape:window-height="1009" inkscape:window-x="0" inkscape:window-y="34" inkscape:window-maximized="1" gridtolerance="10000"/>
  <metadata id="metadata4235">
    <rdf:RDF>
      <cc:Work rdf:about="">
        <dc:format>image/svg+xml</dc:format>
        <dc:type rdf:resource="http://purl.org/dc/dcmitype/StillImage"/>
        <dc:title/>
        <cc:license rdf:resource="http://creativecommons.org/licenses/by-sa/3.0/"/>
      </cc:Work>
      <cc:License rdf:about="http://creativecommons.org/licenses/by-sa/3.0/">
        <cc:permits rdf:resource="http://creativecommons.org/ns#Reproduction"/>
        <cc:permits rdf:resource="http://creativecommons.org/ns#Distribution"/>
        <cc:requires rdf:resource="http://creativecommons.org/ns#Notice"/>
        <cc:requires rdf:resource="http://creativecommons.org/ns#Attribution"/>
        <cc:permits rdf:resource="http://creativecommons.org/ns#DerivativeWorks"/>
        <cc:requires rdf:resource="http://creativecommons.org/ns#ShareAlike"/>
      </cc:License>
    </rdf:RDF>
  </metadata>
  <g inkscape:label="Layer 1" inkscape:groupmode="layer" id="layer1" transform="translate(0,-1004.3622)">
    <path style="color:#000000;font-style:normal;font-variant:normal;font-weight:normal;font-stretch:normal;font-size:medium;line-height:normal;font-family:sans-serif;text-indent:0;text-align:start;text-decoration:none;text-decoration-line:none;text-decoration-style:solid;text-decoration-color:#000000;letter-spacing:normal;word-spacing:normal;text-transform:none;direction:ltr;block-progression:tb;writing-mode:lr-tb;baseline-shift:baseline;text-anchor:start;white-space:normal;clip-rule:nonzero;display:inline;overflow:visible;visibility:visible;opacity:1;isolation:auto;mix-blend-mode:normal;color-interpolation:sRGB;color-interpolation-filters:linearRGB;solid-color:#000000;solid-opacity:1;fill:#263238;fill-opacity:0.4;fill-rule:evenodd;stroke:none;stroke-width:2.5;stroke-linecap:round;stroke-linejoin:miter;stroke-miterlimit:4;stroke-dasharray:none;stroke-dashoffset:0;stroke-opacity:1;filter:url(#filter4175);color-rendering:auto;image-rendering:auto;shape-rendering:auto;text-rendering:auto;enable-background:accumulate" d="m 2.613462,1006.3488 a 1.250125,1.250125 0 0 0 -1.01172,2.0293 l 3.60351,4.6641 c -0.12699,0.3331 -0.20312,0.6915 -0.20312,1.0703 l 0,4 0,2.8652 0,0.1348 c 0,1.662 1.338,3 3,3 l 32,0 c 1.662,0 3,-1.338 3,-3 l 0,-4 0,-2.8652 0,-0.1348 c 0,-0.3803 -0.0771,-0.74 -0.20508,-1.0742 l 3.60156,-4.6602 a 1.250125,1.250125 0 0 0 -1.04882,-2.0273 1.250125,1.250125 0 0 0 -0.92969,0.498 l -3.43164,4.4414 c -0.31022,-0.1079 -0.63841,-0.1777 -0.98633,-0.1777 l -32,0 c -0.34857,0 -0.67757,0.069 -0.98828,0.1777 l -3.4336,-4.4414 a 1.250125,1.250125 0 0 0 -0.96679,-0.5 z m 5.38867,18.7637 c -0.20775,0 -0.40983,0.021 -0.60547,0.061 -1.36951,0.2761 -2.39453,1.4698 -2.39453,2.9101 l 0,0.029 0,19.7793 0,0.029 0,0.1914 c 0,1.662 1.338,3 3,3 l 32,0 c 1.662,0 3,-1.338 3,-3 l 0,-20 0,-0.029 c 0,-1.4403 -1.02502,-2.634 -2.39453,-2.9101 -0.19565,-0.039 -0.39772,-0.061 -0.60547,-0.061 l -32,0 z" id="path4192" inkscape:connector-curvature="0"/>
    <g id="g5012">
      <g id="g4179" transform="matrix(-1,0,0,1,47.999779,0)">
        <path style="fill:#8ab000;fill-opacity:1;fill-rule:evenodd;stroke:#769616;stroke-width:2.5;stroke-linecap:round;stroke-linejoin:miter;stroke-miterlimit:4;stroke-dasharray:none;stroke-opacity:1" d="m 2.5889342,1006.8622 4.25,5.5" id="path4181" inkscape:connector-curvature="0" sodipodi:nodetypes="cc"/>
        <path sodipodi:nodetypes="cccccc" inkscape:connector-curvature="0" id="path4183" d="m 2.6113281,1005.6094 c -0.4534623,0.012 -0.7616975,0.189 -0.9807462,0.4486 2.0269314,2.4089 2.368401,2.7916 5.1354735,6.2214 1.0195329,1.319 2.0816026,0.6373 1.0620696,-0.6817 l -4.25,-5.5 c -0.2289894,-0.3056 -0.5850813,-0.478 -0.9667969,-0.4883 z" style="color:#000000;font-style:normal;font-variant:normal;font-weight:normal;font-stretch:normal;font-size:medium;line-height:normal;font-family:sans-serif;text-indent:0;text-align:start;text-decoration:none;text-decoration-line:none;text-decoration-style:solid;text-decoration-color:#000000;letter-spacing:normal;word-spacing:normal;text-transform:none;direction:ltr;block-progression:tb;writing-mode:lr-tb;baseline-shift:baseline;text-anchor:start;white-space:normal;clip-rule:nonzero;display:inline;overflow:visible;visibility:visible;opacity:1;isolation:auto;mix-blend-mode:normal;color-interpolation:sRGB;color-interpolation-filters:linearRGB;solid-color:#000000;solid-opacity:1;fill:#ffffff;fill-opacity:0.29803923;fill-rule:evenodd;stroke:none;stroke-width:2.5;stroke-linecap:round;stroke-linejoin:miter;stroke-miterlimit:4;stroke-dasharray:none;stroke-dashoffset:0;stroke-opacity:1;color-rendering:auto;image-rendering:auto;shape-rendering:auto;text-rendering:auto;enable-background:accumulate"/>
        <path sodipodi:nodetypes="ccccc" inkscape:connector-curvature="0" id="path4185" d="m 1.6220992,1006.0705 c -0.1238933,0.1479 -0.561176,0.8046 -0.02249,1.5562 l 4.25,5.5 c 1.0195329,1.319 1.1498748,-0.6123 1.1498748,-0.6123 0,0 -3.7344514,-4.51 -5.3773848,-6.4439 z" style="color:#000000;font-style:normal;font-variant:normal;font-weight:normal;font-stretch:normal;font-size:medium;line-height:normal;font-family:sans-serif;text-indent:0;text-align:start;text-decoration:none;text-decoration-line:none;text-decoration-style:solid;text-decoration-color:#000000;letter-spacing:normal;word-spacing:normal;text-transform:none;direction:ltr;block-progression:tb;writing-mode:lr-tb;baseline-shift:baseline;text-anchor:start;white-space:normal;clip-rule:nonzero;display:inline;overflow:visible;visibility:visible;opacity:1;isolation:auto;mix-blend-mode:normal;color-interpolation:sRGB;color-interpolation-filters:linearRGB;solid-color:#000000;solid-opacity:1;fill:#263238;fill-opacity:0.2;fill-rule:evenodd;stroke:none;stroke-width:2.5;stroke-linecap:round;stroke-linejoin:miter;stroke-miterlimit:4;stroke-dasharray:none;stroke-dashoffset:0;stroke-opacity:1;color-rendering:auto;image-rendering:auto;shape-rendering:auto;text-rendering:auto;enable-background:accumulate"/>
        <path sodipodi:nodetypes="cscccc" inkscape:connector-curvature="0" id="path4187" d="m 2.3378905,1005.8443 c -0.438175,0 -0.959862,0.1416 -0.8242183,0.7986 0.103561,0.5016 4.6608262,6.0744 4.6608262,6.0744 1.0195329,1.319 2.4934721,0.6763 1.4739391,-0.6425 l -4.234375,-5.4727 c -0.2602394,-0.29 -0.6085188,-0.7436 -1.076172,-0.7578 z" style="color:#000000;font-style:normal;font-variant:normal;font-weight:normal;font-stretch:normal;font-size:medium;line-height:normal;font-family:sans-serif;text-indent:0;text-align:start;text-decoration:none;text-decoration-line:none;text-decoration-style:solid;text-decoration-color:#000000;letter-spacing:normal;word-spacing:normal;text-transform:none;direction:ltr;block-progression:tb;writing-mode:lr-tb;baseline-shift:baseline;text-anchor:start;white-space:normal;clip-rule:nonzero;display:inline;overflow:visible;visibility:visible;opacity:1;isolation:auto;mix-blend-mode:normal;color-interpolation:sRGB;color-interpolation-filters:linearRGB;solid-color:#000000;solid-opacity:1;fill:#8ab000;fill-opacity:1;fill-rule:evenodd;stroke:none;stroke-width:2.5;stroke-linecap:round;stroke-linejoin:miter;stroke-miterlimit:4;stroke-dasharray:none;stroke-dashoffset:0;stroke-opacity:1;color-rendering:auto;image-rendering:auto;shape-rendering:auto;text-rendering:auto;enable-background:accumulate"/>
      </g>
      <g id="g4955">
        <path sodipodi:nodetypes="cc" inkscape:connector-curvature="0" id="path4945" d="m 2.5889342,1006.8622 4.25,5.5" style="fill:#8ab000;fill-opacity:1;fill-rule:evenodd;stroke:#769616;stroke-width:2.5;stroke-linecap:round;stroke-linejoin:miter;stroke-miterlimit:4;stroke-dasharray:none;stroke-opacity:1"/>
        <path style="color:#000000;font-style:normal;font-variant:normal;font-weight:normal;font-stretch:normal;font-size:medium;line-height:normal;font-family:sans-serif;text-indent:0;text-align:start;text-decoration:none;text-decoration-line:none;text-decoration-style:solid;text-decoration-color:#000000;letter-spacing:normal;word-spacing:normal;text-transform:none;direction:ltr;block-progression:tb;writing-mode:lr-tb;baseline-shift:baseline;text-anchor:start;white-space:normal;clip-rule:nonzero;display:inline;overflow:visible;visibility:visible;opacity:1;isolation:auto;mix-blend-mode:normal;color-interpolation:sRGB;color-interpolation-filters:linearRGB;solid-color:#000000;solid-opacity:1;fill:#ffffff;fill-opacity:0.29803923;fill-rule:evenodd;stroke:none;stroke-width:2.5;stroke-linecap:round;stroke-linejoin:miter;stroke-miterlimit:4;stroke-dasharray:none;stroke-dashoffset:0;stroke-opacity:1;color-rendering:auto;image-rendering:auto;shape-rendering:auto;text-rendering:auto;enable-background:accumulate" d="m 2.6113281,1005.6094 c -0.4534623,0.012 -0.7616975,0.189 -0.9807462,0.4486 2.0269314,2.4089 2.368401,2.7916 5.1354735,6.2214 1.0195329,1.319 2.0816026,0.6373 1.0620696,-0.6817 l -4.25,-5.5 c -0.2289894,-0.3056 -0.5850813,-0.478 -0.9667969,-0.4883 z" id="path4947" inkscape:connector-curvature="0" sodipodi:nodetypes="cccccc"/>
        <path style="color:#000000;font-style:normal;font-variant:normal;font-weight:normal;font-stretch:normal;font-size:medium;line-height:normal;font-family:sans-serif;text-indent:0;text-align:start;text-decoration:none;text-decoration-line:none;text-decoration-style:solid;text-decoration-color:#000000;letter-spacing:normal;word-spacing:normal;text-transform:none;direction:ltr;block-progression:tb;writing-mode:lr-tb;baseline-shift:baseline;text-anchor:start;white-space:normal;clip-rule:nonzero;display:inline;overflow:visible;visibility:visible;opacity:1;isolation:auto;mix-blend-mode:normal;color-interpolation:sRGB;color-interpolation-filters:linearRGB;solid-color:#000000;solid-opacity:1;fill:#263238;fill-opacity:0.2;fill-rule:evenodd;stroke:none;stroke-width:2.5;stroke-linecap:round;stroke-linejoin:miter;stroke-miterlimit:4;stroke-dasharray:none;stroke-dashoffset:0;stroke-opacity:1;color-rendering:auto;image-rendering:auto;shape-rendering:auto;text-rendering:auto;enable-background:accumulate" d="m 1.6220992,1006.0705 c -0.1238933,0.1479 -0.561176,0.8046 -0.02249,1.5562 l 4.25,5.5 c 1.0195329,1.319 1.1498748,-0.6123 1.1498748,-0.6123 0,0 -3.7344514,-4.51 -5.3773848,-6.4439 z" id="path4951" inkscape:connector-curvature="0" sodipodi:nodetypes="ccccc"/>
        <path style="color:#000000;font-style:normal;font-variant:normal;font-weight:normal;font-stretch:normal;font-size:medium;line-height:normal;font-family:sans-serif;text-indent:0;text-align:start;text-decoration:none;text-decoration-line:none;text-decoration-style:solid;text-decoration-color:#000000;letter-spacing:normal;word-spacing:normal;text-transform:none;direction:ltr;block-progression:tb;writing-mode:lr-tb;baseline-shift:baseline;text-anchor:start;white-space:normal;clip-rule:nonzero;display:inline;overflow:visible;visibility:visible;opacity:1;isolation:auto;mix-blend-mode:normal;color-interpolation:sRGB;color-interpolation-filters:linearRGB;solid-color:#000000;solid-opacity:1;fill:#8ab000;fill-opacity:1;fill-rule:evenodd;stroke:none;stroke-width:2.5;stroke-linecap:round;stroke-linejoin:miter;stroke-miterlimit:4;stroke-dasharray:none;stroke-dashoffset:0;stroke-opacity:1;color-rendering:auto;image-rendering:auto;shape-rendering:auto;text-rendering:auto;enable-background:accumulate" d="m 2.3378905,1005.8443 c -0.438175,0 -0.959862,0.1416 -0.8242183,0.7986 0.103561,0.5016 4.6608262,6.0744 4.6608262,6.0744 1.0195329,1.319 2.4934721,0.6763 1.4739391,-0.6425 l -4.234375,-5.4727 c -0.2602394,-0.29 -0.6085188,-0.7436 -1.076172,-0.7578 z" id="path4925" inkscape:connector-curvature="0" sodipodi:nodetypes="cscccc"/>
      </g>
      <g transform="translate(42,0)" id="g4967">
        <rect style="opacity:1;fill:#aeea00;fill-opacity:1;stroke:none;stroke-width:3;stroke-linecap:round;stroke-linejoin:miter;stroke-miterlimit:3;stroke-dasharray:none;stroke-dashoffset:0;stroke-opacity:1" id="rect4144" width="38" height="13" x="-37" y="1010.3622" rx="3" ry="3"/>
        <rect ry="3" rx="3" y="1013.3622" x="-37" height="10" width="38" id="rect4961" style="opacity:1;fill:#263238;fill-opacity:0.2;stroke:none;stroke-width:3;stroke-linecap:round;stroke-linejoin:miter;stroke-miterlimit:3;stroke-dasharray:none;stroke-dashoffset:0;stroke-opacity:1"/>
        <rect ry="3" rx="3" y="1010.3622" x="-37" height="10" width="38" id="rect4963" style="opacity:1;fill:#ffffff;fill-opacity:0.29803923;stroke:none;stroke-width:3;stroke-linecap:round;stroke-linejoin:miter;stroke-miterlimit:3;stroke-dasharray:none;stroke-dashoffset:0;stroke-opacity:1"/>
        <rect ry="2.5384617" rx="3" y="1011.3622" x="-37" height="11" width="38" id="rect4965" style="opacity:1;fill:#aeea00;fill-opacity:1;stroke:none;stroke-width:3;stroke-linecap:round;stroke-linejoin:miter;stroke-miterlimit:3;stroke-dasharray:none;stroke-dashoffset:0;stroke-opacity:1"/>
      </g>
      <g id="g4979">
        <rect style="opacity:1;fill:#1976d2;fill-opacity:1;stroke:none;stroke-width:3;stroke-linecap:round;stroke-linejoin:miter;stroke-miterlimit:3;stroke-dasharray:none;stroke-dashoffset:0;stroke-opacity:1" id="rect4146" width="38" height="26" x="5" y="1024.3622" rx="3" ry="3"/>
        <rect ry="3" rx="3" y="1037.3622" x="5" height="13" width="38" id="rect4973" style="opacity:1;fill:#263238;fill-opacity:0.2;stroke:none;stroke-width:3;stroke-linecap:round;stroke-linejoin:miter;stroke-miterlimit:3;stroke-dasharray:none;stroke-dashoffset:0;stroke-opacity:1"/>
        <rect ry="3" rx="3" y="1024.3622" x="5" height="13" width="38" id="rect4975" style="opacity:1;fill:#ffffff;fill-opacity:0.2;stroke:none;stroke-width:3;stroke-linecap:round;stroke-linejoin:miter;stroke-miterlimit:3;stroke-dasharray:none;stroke-dashoffset:0;stroke-opacity:1"/>
        <rect ry="2.7692308" rx="3" y="1025.3622" x="5" height="24" width="38" id="rect4977" style="opacity:1;fill:#1976d2;fill-opacity:1;stroke:none;stroke-width:3;stroke-linecap:round;stroke-linejoin:miter;stroke-miterlimit:3;stroke-dasharray:none;stroke-dashoffset:0;stroke-opacity:1"/>
      </g>
      <g transform="translate(0,1013.3622)" id="g4211">
        <path style="color:#000000;font-style:normal;font-variant:normal;font-weight:normal;font-stretch:normal;font-size:medium;line-height:normal;font-family:sans-serif;text-indent:0;text-align:start;text-decoration:none;text-decoration-line:none;text-decoration-style:solid;text-decoration-color:#000000;letter-spacing:normal;word-spacing:normal;text-transform:none;direction:ltr;block-progression:tb;writing-mode:lr-tb;baseline-shift:baseline;text-anchor:start;white-space:normal;clip-rule:nonzero;display:inline;overflow:visible;visibility:visible;opacity:1;isolation:auto;mix-blend-mode:normal;color-interpolation:sRGB;color-interpolation-filters:linearRGB;solid-color:#000000;solid-opacity:1;fill:#0d47a1;fill-opacity:1;fill-rule:nonzero;stroke:none;stroke-width:3;stroke-linecap:round;stroke-linejoin:miter;stroke-miterlimit:4;stroke-dasharray:none;stroke-dashoffset:0;stroke-opacity:1;color-rendering:auto;image-rendering:auto;shape-rendering:auto;text-rendering:auto;enable-background:accumulate" d="m 24,17.75 c -2.880662,0 -5.319789,1.984685 -6.033203,4.650391 l 3.212891,0 C 21.734004,21.415044 22.774798,20.75 24,20.75 c 1.812692,0 3.25,1.437308 3.25,3.25 0,1.812693 -1.437308,3.25 -3.25,3.25 -1.307381,0 -2.411251,-0.75269 -2.929688,-1.849609 l -3.154296,0 C 18.558263,28.166146 21.04791,30.25 24,30.25 c 3.434013,0 6.25,-2.815987 6.25,-6.25 0,-3.434012 -2.815987,-6.25 -6.25,-6.25 z" id="path4161" inkscape:connector-curvature="0"/>
        <circle style="opacity:1;fill:none;fill-opacity:0.40392157;stroke:#0d47a1;stroke-width:1.89999998;stroke-linecap:round;stroke-linejoin:miter;stroke-miterlimit:4;stroke-dasharray:none;stroke-dashoffset:0;stroke-opacity:1" id="path4209" cx="24" cy="24" r="9.5500002"/>
      </g>
      <g id="g4989" transform="translate(0,0.50001738)">
        <ellipse cy="1016.4872" cx="14.375" id="circle4985" style="opacity:1;fill:#263238;fill-opacity:0.2;stroke:none;stroke-width:1.89999998;stroke-linecap:round;stroke-linejoin:miter;stroke-miterlimit:4;stroke-dasharray:none;stroke-dashoffset:0;stroke-opacity:0.69721117" rx="3.375" ry="3.875"/>
        <circle style="opacity:1;fill:#ffffff;fill-opacity:1;stroke:none;stroke-width:1.89999998;stroke-linecap:round;stroke-linejoin:miter;stroke-miterlimit:4;stroke-dasharray:none;stroke-dashoffset:0;stroke-opacity:0.69721117" id="path4859" cx="14.375" cy="1016.9872" r="3.375"/>
      </g>
      <g transform="translate(19.5,0.50001738)" id="g4171">
        <ellipse ry="3.875" rx="3.375" style="opacity:1;fill:#263238;fill-opacity:0.2;stroke:none;stroke-width:1.89999998;stroke-linecap:round;stroke-linejoin:miter;stroke-miterlimit:4;stroke-dasharray:none;stroke-dashoffset:0;stroke-opacity:0.69721117" id="ellipse4175" cx="14.375" cy="1016.4872"/>
        <circle r="3.375" cy="1016.9872" cx="14.375" id="circle4177" style="opacity:1;fill:#ffffff;fill-opacity:1;stroke:none;stroke-width:1.89999998;stroke-linecap:round;stroke-linejoin:miter;stroke-miterlimit:4;stroke-dasharray:none;stroke-dashoffset:0;stroke-opacity:0.69721117"/>
      </g>
    </g>
    <path inkscape:connector-curvature="0" id="path5128" d="m 2.613462,1005.5987 a 1.250125,1.250125 0 0 0 -1.01172,2.0293 l 3.60351,4.6641 c -0.12699,0.3331 -0.20312,0.6915 -0.20312,1.0703 l 0,4 0,2.8652 0,0.1348 c 0,1.662 1.338,3 3,3 l 32,0 c 1.662,0 3,-1.338 3,-3 l 0,-4 0,-2.8652 0,-0.1348 c 0,-0.3803 -0.0771,-0.74 -0.20508,-1.0742 l 3.60156,-4.6602 a 1.250125,1.250125 0 0 0 -1.04882,-2.0273 1.250125,1.250125 0 0 0 -0.92969,0.498 l -3.43164,4.4414 c -0.31022,-0.1079 -0.63841,-0.1777 -0.98633,-0.1777 l -32,0 c -0.34857,0 -0.67757,0.069 -0.98828,0.1777 l -3.4336,-4.4414 a 1.250125,1.250125 0 0 0 -0.96679,-0.5 z m 5.38867,18.7637 c -0.20775,0 -0.40983,0.021 -0.60547,0.061 -1.36951,0.2761 -2.39453,1.4698 -2.39453,2.9101 l 0,0.029 0,19.7793 0,0.029 0,0.1914 c 0,1.662 1.338,3 3,3 l 32,0 c 1.662,0 3,-1.338 3,-3 l 0,-20 0,-0.029 c 0,-1.4403 -1.02502,-2.634 -2.39453,-2.9101 -0.19565,-0.039 -0.39772,-0.061 -0.60547,-0.061 l -32,0 z" style="color:#000000;font-style:normal;font-variant:normal;font-weight:normal;font-stretch:normal;font-size:medium;line-height:normal;font-family:sans-serif;text-indent:0;text-align:start;text-decoration:none;text-decoration-line:none;text-decoration-style:solid;text-decoration-color:#000000;letter-spacing:normal;word-spacing:normal;text-transform:none;direction:ltr;block-progression:tb;writing-mode:lr-tb;baseline-shift:baseline;text-anchor:start;white-space:normal;clip-rule:nonzero;display:inline;overflow:visible;visibility:visible;opacity:1;isolation:auto;mix-blend-mode:normal;color-interpolation:sRGB;color-interpolation-filters:linearRGB;solid-color:#000000;solid-opacity:1;fill:url(#radialGradient5220);fill-opacity:1;fill-rule:evenodd;stroke:none;stroke-width:2.5;stroke-linecap:round;stroke-linejoin:miter;stroke-miterlimit:4;stroke-dasharray:none;stroke-dashoffset:0;stroke-opacity:1;color-rendering:auto;image-rendering:auto;shape-rendering:auto;text-rendering:auto;enable-background:accumulate"/>
  </g>
</svg>